<?xml version="1.0" encoding="utf-8"?>
<!-- Generator: Adobe Illustrator 18.0.0, SVG Export Plug-In . SVG Version: 6.00 Build 0)  -->
<!DOCTYPE svg PUBLIC "-//W3C//DTD SVG 1.1//EN" "http://www.w3.org/Graphics/SVG/1.1/DTD/svg11.dtd">
<svg version="1.1" id="Layer_1" xmlns="http://www.w3.org/2000/svg" xmlns:xlink="http://www.w3.org/1999/xlink" x="0px" y="0px"
	 viewBox="0 0 175 50" enable-background="new 0 0 175 50" xml:space="preserve">
<path d="M83.7,29c-0.3-0.3-0.8-0.4-1.3-0.6c-1-0.6-1.5-3.2-4.9-6.1c-3.4-2.9-12.7-3-14.7-3.1c-9.7-0.3-16.1,0.7-19.9,0.7
	c0,0,0,0,0,0c-4.8,0-10.7-1-20.4-0.7c-2,0.1-11.7,0.1-15.1,3.1s-4,5.5-5,6.1c-0.5,0.3-1,0.3-1.3,0.6c-0.3,0.3-0.3,1.2-0.2,2.2
	c0,1.1,0,2.1,0.2,2.4s0.5,0.4,1.1,0.8s0.7,0.2,1.4,3.7c0.7,3.5,2.3,7,5.2,9c1.4,1,7.1,2.6,12,2.1c4.4-0.4,7.4-1.6,9.6-3.1l0,0V46
	c2.9-2.2,4.9-5,6.7-7.7c3-4.6,1.9-8,5.8-8c0,0,0,0,0,0c2.9,0,2.3,3.4,5.3,8c1.7,2.7,3.3,5.6,6.2,7.7v0.1l0,0
	c2.2,1.5,5.2,2.7,9.6,3.1c4.9,0.5,10.7-1.1,12-2.1c2.9-2.1,4.5-5.5,5.2-9c0.7-3.5,0.8-3.3,1.4-3.7c0.6-0.4,0.9-0.5,1.1-0.8
	c0.2-0.3,0.2-1.4,0.2-2.4C83.9,30.2,84,29.4,83.7,29z M10,23c0.2-0.1,7-0.2,13.8-0.3c6.5-0.1,12.6-0.3,12.8-0.2
	c0.2,0.1,1.3,0.3,1.6,2.3L7.1,25.3C8.4,23.6,9.9,23,10,23z M18.8,46.9c-2.9,0-5.3-0.3-7.1-1.1L25,46C23.2,46.6,21.1,46.9,18.8,46.9z
	 M28.7,44.4L8.9,44.1c-0.6-0.6-1.2-1.3-1.6-2.2l24.3,0.3C30.8,43,29.8,43.8,28.7,44.4z M33.4,40.1c-0.1,0.2-0.2,0.3-0.3,0.5
	L6.6,40.2c-0.2-0.4-0.3-0.9-0.4-1.4c0-0.2-0.1-0.4-0.1-0.6l28.5,0.1C34.2,39,33.8,39.5,33.4,40.1z M35.4,36.7L5.7,36.6
	c-0.1-0.6-0.2-1.3-0.3-2l31-0.4C36.2,35.1,35.8,35.9,35.4,36.7z M37.1,32.6L5.3,33c0-0.7,0-1.5,0-2.2l32.5-0.5
	C37.6,31.1,37.4,31.9,37.1,32.6z M38.4,27c0,0.5-0.1,1.1-0.2,1.7L5.5,29.2c0.1-0.4,0.2-0.8,0.3-1.1C5.9,27.6,6,27.3,6.1,27l32.3-0.5
	C38.4,26.7,38.4,26.8,38.4,27z M48.1,22.5c0.3-0.1,6.3,0,12.8,0.2c6.8,0.1,13.6,0.2,13.8,0.3c0.1,0,1.6,0.6,2.9,2.3l-31.2-0.5
	C46.8,22.9,47.8,22.6,48.1,22.5z M46.4,27c0-0.2,0-0.4,0-0.6L78.6,27c0.1,0.3,0.3,0.7,0.4,1.1c0.1,0.3,0.2,0.7,0.3,1.1l-32.7-0.5
	C46.5,28.1,46.4,27.6,46.4,27z M66,46.9c-2.4,0-4.4-0.3-6.3-0.9l13.4-0.2C71.2,46.5,68.9,46.9,66,46.9z M75.8,44.1L56,44.4
	c-1.1-0.7-2.1-1.4-2.9-2.2l24.3-0.3C77,42.7,76.4,43.5,75.8,44.1z M78.5,38.8c-0.1,0.5-0.3,0.9-0.4,1.4l-26.5,0.3
	c-0.1-0.2-0.2-0.3-0.3-0.5c-0.4-0.5-0.7-1.1-1.1-1.7l28.5-0.1C78.6,38.5,78.6,38.7,78.5,38.8z M79,36.6l-29.7,0.1
	c-0.4-0.8-0.8-1.6-1.1-2.4l31,0.4C79.2,35.3,79.1,36,79,36.6z M79.4,33l-31.8-0.4c-0.3-0.8-0.5-1.5-0.7-2.2l32.5,0.5
	C79.4,31.5,79.4,32.2,79.4,33z"/>
<line fill="none" stroke="#000000" stroke-width="2.1029" stroke-miterlimit="10" x1="4.5" y1="27.4" x2="21.2" y2="2.6"/>
<line fill="none" stroke="#000000" stroke-width="2.1029" stroke-miterlimit="10" x1="80.2" y1="27.2" x2="63.5" y2="2.5"/>
<path fill="none" stroke="#000000" stroke-width="2.1029" stroke-miterlimit="10" d="M21.2,2.6c1.1-1.6,3.7-1.9,5.7-0.5"/>
<path d="M26.8,1.1c-1,0-1,2.1,0,2.1C28.7,3.2,28.7,1.1,26.8,1.1z"/>
<path fill="none" stroke="#000000" stroke-width="2.1029" stroke-miterlimit="10" d="M63.5,2.5c-1.1-1.6-3.7-1.9-5.7-0.5"/>
<path d="M58,1c1,0,1,2.1,0,2.1C56.1,3.1,56.1,1,58,1z"/>
<rect x="96.1" y="8.7" fill="none" width="78.9" height="32.2"/>
<text transform="matrix(1 0 0 1 96.0622 35.8)" font-family="'MyriadPro-BoldIt'" font-size="38.2342" letter-spacing="1">yero</text>
</svg>
